<svg width="333" height="119" viewBox="0 0 333 119" fill="none" xmlns="http://www.w3.org/2000/svg">
<rect width="333" height="119" rx="12" fill="#1F2623" fill-opacity="0.81"/>
<path d="M51.5057 77.08H62.5937V60.184H52.2977V52.264H70.9097V77.08H80.4137V85H51.5057V77.08ZM72.9557 42.562C72.9557 43.442 72.7797 44.278 72.4277 45.07C72.1197 45.818 71.6797 46.478 71.1077 47.05C70.5357 47.578 69.8537 48.018 69.0617 48.37C68.3137 48.678 67.5217 48.832 66.6857 48.832C65.8057 48.832 64.9917 48.678 64.2437 48.37C63.4957 48.018 62.8357 47.578 62.2637 47.05C61.6917 46.478 61.2297 45.818 60.8777 45.07C60.5697 44.278 60.4157 43.442 60.4157 42.562C60.4157 41.682 60.5697 40.868 60.8777 40.12C61.2297 39.328 61.6917 38.668 62.2637 38.14C62.8357 37.568 63.4957 37.128 64.2437 36.82C64.9917 36.468 65.8057 36.292 66.6857 36.292C67.5217 36.292 68.3137 36.468 69.0617 36.82C69.8537 37.128 70.5357 37.568 71.1077 38.14C71.6797 38.668 72.1197 39.328 72.4277 40.12C72.7797 40.868 72.9557 41.682 72.9557 42.562ZM113.5 52.264H121.816V93.052C121.816 94.548 121.332 95.78 120.364 96.748C119.44 97.716 118.23 98.2 116.734 98.2H97.2638V90.28H111.718C112.906 90.28 113.5 89.62 113.5 88.3V80.248H112.312C110.86 84.032 107.736 85.924 102.94 85.924C101.312 85.924 99.7938 85.66 98.3858 85.132C96.9778 84.604 95.7458 83.79 94.6898 82.69C93.6338 81.59 92.7978 80.226 92.1818 78.598C91.6098 76.926 91.3238 74.968 91.3238 72.724V52.264H99.6398V71.008C99.6398 73.34 100.19 75.166 101.29 76.486C102.39 77.762 104.04 78.4 106.24 78.4C108.748 78.4 110.574 77.608 111.718 76.024C112.906 74.396 113.5 72.196 113.5 69.424V52.264ZM132.33 77.08H143.418V60.184H133.122V52.264H151.734V77.08H161.238V85H132.33V77.08ZM153.78 42.562C153.78 43.442 153.604 44.278 153.252 45.07C152.944 45.818 152.504 46.478 151.932 47.05C151.36 47.578 150.678 48.018 149.886 48.37C149.138 48.678 148.346 48.832 147.51 48.832C146.63 48.832 145.816 48.678 145.068 48.37C144.32 48.018 143.66 47.578 143.088 47.05C142.516 46.478 142.054 45.818 141.702 45.07C141.394 44.278 141.24 43.442 141.24 42.562C141.24 41.682 141.394 40.868 141.702 40.12C142.054 39.328 142.516 38.668 143.088 38.14C143.66 37.568 144.32 37.128 145.068 36.82C145.816 36.468 146.63 36.292 147.51 36.292C148.346 36.292 149.138 36.468 149.886 36.82C150.678 37.128 151.36 37.568 151.932 38.14C152.504 38.668 152.944 39.328 153.252 40.12C153.604 40.868 153.78 41.682 153.78 42.562ZM193.466 79.654C193.466 80.534 193.29 81.37 192.938 82.162C192.63 82.91 192.19 83.57 191.618 84.142C191.046 84.67 190.364 85.088 189.572 85.396C188.824 85.748 188.032 85.924 187.196 85.924C186.316 85.924 185.502 85.748 184.754 85.396C184.006 85.088 183.346 84.67 182.774 84.142C182.202 83.57 181.74 82.91 181.388 82.162C181.08 81.37 180.926 80.534 180.926 79.654C180.926 78.774 181.08 77.96 181.388 77.212C181.74 76.42 182.202 75.76 182.774 75.232C183.346 74.66 184.006 74.22 184.754 73.912C185.502 73.56 186.316 73.384 187.196 73.384C188.032 73.384 188.824 73.56 189.572 73.912C190.364 74.22 191.046 74.66 191.618 75.232C192.19 75.76 192.63 76.42 192.938 77.212C193.29 77.96 193.466 78.774 193.466 79.654ZM212.296 52.264H221.602V45.532C221.602 43.64 222.24 42.056 223.516 40.78C224.792 39.46 226.376 38.8 228.268 38.8H241.6V46.72H231.7C230.512 46.72 229.918 47.38 229.918 48.7V52.264H242.788V60.184H229.918V85H221.602V60.184H212.296V52.264ZM251.388 52.264H265.248V57.016H266.436C267.052 55.212 268.086 53.826 269.538 52.858C271.034 51.846 272.816 51.34 274.884 51.34C278.14 51.34 280.758 52.374 282.738 54.442C284.718 56.466 285.708 59.568 285.708 63.748V65.2L277.128 65.992V65.068C277.128 63.264 276.666 61.834 275.742 60.778C274.818 59.678 273.432 59.128 271.584 59.128C269.736 59.128 268.284 59.766 267.228 61.042C266.172 62.318 265.644 64.144 265.644 66.52V77.08H273.168V85H250.596V77.08H257.328V60.184H251.388V52.264Z" fill="#3BFA9E" fill-opacity="0.71"/>
</svg>
