<svg width="175" height="41" viewBox="0 0 175 41" fill="none" xmlns="http://www.w3.org/2000/svg">
<path d="M6.80908 3.664C6.80908 2.81333 7.10241 2.09467 7.68908 1.508C8.30508 0.891998 9.03841 0.583998 9.88908 0.583998C10.7397 0.583998 11.4584 0.891998 12.0451 1.508C12.6611 2.09467 12.9691 2.81333 12.9691 3.664C12.9691 4.51467 12.6611 5.248 12.0451 5.864C11.4584 6.45067 10.7397 6.744 9.88908 6.744C9.03841 6.744 8.30508 6.45067 7.68908 5.864C7.10241 5.248 6.80908 4.51467 6.80908 3.664ZM0.561078 28.832H8.21708V13.344H1.35308V10.176H11.6491V28.832H18.7771V32H0.561078V28.832ZM42.8145 28.04H42.2865C41.5825 29.448 40.6585 30.5627 39.5145 31.384C38.3705 32.2053 36.9185 32.616 35.1585 32.616C33.9558 32.616 32.8412 32.4107 31.8145 32C30.8172 31.6187 29.9518 31.032 29.2185 30.24C28.5145 29.448 27.9572 28.4653 27.5465 27.292C27.1652 26.1187 26.9745 24.7547 26.9745 23.2V10.176H30.4065V22.76C30.4065 25.048 30.8758 26.72 31.8145 27.776C32.7532 28.832 34.1905 29.36 36.1265 29.36C38.2092 29.36 39.8372 28.656 41.0105 27.248C42.2132 25.8107 42.8145 23.904 42.8145 21.528V10.176H46.2465V37.368C46.2465 38.3653 45.9238 39.1867 45.2785 39.832C44.6625 40.4773 43.8558 40.8 42.8585 40.8H30.4065V37.632H41.6265C42.4185 37.632 42.8145 37.192 42.8145 36.312V28.04ZM60.6919 3.664C60.6919 2.81333 60.9852 2.09467 61.5719 1.508C62.1879 0.891998 62.9212 0.583998 63.7719 0.583998C64.6226 0.583998 65.3412 0.891998 65.9279 1.508C66.5439 2.09467 66.8519 2.81333 66.8519 3.664C66.8519 4.51467 66.5439 5.248 65.9279 5.864C65.3412 6.45067 64.6226 6.744 63.7719 6.744C62.9212 6.744 62.1879 6.45067 61.5719 5.864C60.9852 5.248 60.6919 4.51467 60.6919 3.664ZM54.4439 28.832H62.0999V13.344H55.2359V10.176H65.5319V28.832H72.6599V32H54.4439V28.832ZM107.579 10.176H114.311V4.632C114.311 3.63467 114.619 2.81333 115.235 2.168C115.88 1.52266 116.701 1.2 117.699 1.2H126.323V4.368H118.931C118.139 4.368 117.743 4.808 117.743 5.688V10.176H126.851V13.344H117.743V32H114.311V13.344H107.579V10.176ZM133.508 10.176H141.428V13.08H141.956C142.513 11.8773 143.305 10.9973 144.332 10.44C145.359 9.85333 146.532 9.56 147.852 9.56C150.052 9.56 151.827 10.2787 153.176 11.716C154.525 13.1533 155.244 15.2507 155.332 18.008L151.724 18.536C151.724 16.512 151.24 15.06 150.272 14.18C149.304 13.2707 148.116 12.816 146.708 12.816C145.799 12.816 145.007 12.992 144.332 13.344C143.687 13.696 143.144 14.18 142.704 14.796C142.264 15.412 141.941 16.1307 141.736 16.952C141.531 17.7733 141.428 18.6533 141.428 19.592V28.832H146.972V32H132.98V28.832H137.996V13.344H133.508V10.176ZM168.238 29.536C168.238 28.6853 168.531 27.9667 169.118 27.38C169.734 26.764 170.467 26.456 171.318 26.456C172.168 26.456 172.887 26.764 173.474 27.38C174.09 27.9667 174.398 28.6853 174.398 29.536C174.398 30.3867 174.09 31.12 173.474 31.736C172.887 32.3227 172.168 32.616 171.318 32.616C170.467 32.616 169.734 32.3227 169.118 31.736C168.531 31.12 168.238 30.3867 168.238 29.536Z" fill="white"/>
</svg>
